<svg width="24" height="24" viewBox="0 0 24 24" fill="currentColor" xmlns="http://www.w3.org/2000/svg">
<path fillRule="evenodd" clip-rule="evenodd" d="M2 12C2 17.5228 6.47715 22 12 22H12.23C12.8375 21.9719 13.4106 21.7104 13.83 21.27C14.2504 20.8225 14.4706 20.2232 14.44 19.61C14.4219 19.0059 14.1583 18.4353 13.71 18.03C13.6526 17.9713 13.5848 17.9238 13.51 17.89C13.1892 17.7098 12.9933 17.3679 13 17C13 16.4477 13.4477 16 14 16H16.5C19.3967 16.1302 21.8544 13.8959 22 11C22 6 17.51 2 12 2C6.47715 2 2 6.47715 2 12ZM3.9 11.9C3.95523 7.48172 7.58172 3.94477 12 4C16.41 4 20 7.14 20 11C19.846 12.7868 18.2893 14.1211 16.5 14H14C12.3625 13.9998 11.0273 15.3127 11 16.95C10.9783 18.0022 11.5096 18.9889 12.4 19.55C12.4123 19.5992 12.4123 19.6508 12.4 19.7C12.4116 19.7723 12.3895 19.846 12.34 19.9C12.2599 19.9696 12.156 20.0054 12.05 20C11.9674 19.9848 11.8826 19.9848 11.8 20C7.38172 19.9448 3.84477 16.3183 3.9 11.9ZM7.5 12C6.67157 12 6 11.3284 6 10.5C6 9.67157 6.67157 9 7.5 9C8.32843 9 9 9.67157 9 10.5C9 11.3284 8.32843 12 7.5 12ZM12 9C11.1716 9 10.5 8.32843 10.5 7.5C10.5 6.67157 11.1716 6 12 6C12.8284 6 13.5 6.67157 13.5 7.5C13.5 8.32843 12.8284 9 12 9ZM16.5 12C15.6716 12 15 11.3284 15 10.5C15 9.67157 15.6716 9 16.5 9C17.3284 9 18 9.67157 18 10.5C18 11.3284 17.3284 12 16.5 12Z" fill="currentColor"></path>
</svg>